<?xml version="1.0" encoding="UTF-8" standalone="no"?>
<svg
   xmlns:dc="http://purl.org/dc/elements/1.1/"
   xmlns:cc="http://creativecommons.org/ns#"
   xmlns:rdf="http://www.w3.org/1999/02/22-rdf-syntax-ns#"
   xmlns:svg="http://www.w3.org/2000/svg"
   xmlns="http://www.w3.org/2000/svg"
   id="svg32"
   preserveAspectRatio="xMidYMid meet"
   viewBox="0 0 130 130.00001"
   height="130pt"
   width="130pt"
   version="1.0">
  <defs
     id="defs36" />
  <metadata
     id="metadata2">
Created by potrace 1.15, written by Peter Selinger 2001-2017
<rdf:RDF>
  <cc:Work
     rdf:about="">
    <dc:format>image/svg+xml</dc:format>
    <dc:type
       rdf:resource="http://purl.org/dc/dcmitype/StillImage" />
    <dc:title></dc:title>
  </cc:Work>
</rdf:RDF>
</metadata>
  <g
     id="layer2">
    <rect
       ry="3.4156458"
       rx="10.011251"
       y="0.55318713"
       x="0.30319068"
       height="129.14363"
       width="129.14363"
       id="rect904"
       style="fill:#ffffff;fill-opacity:1;stroke:#f9f9f9;stroke-width:0.60638136;stroke-miterlimit:4;stroke-dasharray:none;stroke-opacity:1" />
  </g>
  <g
     id="layer1">
    <path
       id="path854"
       d="M 81.375631,61.5867 C 85.277221,56.062304 90.994246,43.593969 92.727016,36.830306 95.074081,27.668818 92.230463,19.780699 85.295123,16.214433 81.802418,14.418426 75.407858,13.22961 69.173534,13.217259 l -5.45368,-0.01081 1.884677,-3.7335244 1.884677,-3.733524 h 31.222695 31.222707 l -3.67742,2.214428 c -5.77887,3.4798554 -8.81064,6.2644444 -12.05463,11.0718424 -3.53406,5.237243 -8.15151,14.200362 -8.15151,15.823207 0,1.743069 -4.55704,10.772343 -7.989584,15.830476 -1.690493,2.491081 -4.4346,5.546595 -6.098018,6.790032 -3.494497,2.612206 -9.047835,5.517381 -10.54665,5.517381 -0.946252,0 -0.949597,-0.113792 -0.04118,-1.400072 z"
       style="fill:#910028;fill-opacity:1;stroke:#f9f9f9;stroke-width:0.61167562;stroke-miterlimit:4;stroke-dasharray:none;stroke-opacity:1" />
    <path
       id="path856"
       d="M 42.939697,63.142413 13.118942,62.97457 17.116157,60.298036 c 4.453305,-2.981932 9.649003,-8.813918 13.166937,-14.779418 1.27871,-2.168361 3.880126,-7.919578 5.780924,-12.780485 1.900799,-4.860906 4.513479,-10.47414 5.805955,-12.473852 C 46.085621,13.741855 55.627445,6.3616596 59.844617,6.3616596 h 1.462781 l -1.865406,2.333453 c -1.025974,1.2833994 -3.391025,5.5536164 -5.255672,9.4893724 -7.439598,15.702959 -8.327706,22.631068 -3.789636,29.562871 3.69035,5.636929 8.082364,7.4626 19.569123,8.134482 4.128098,0.241461 7.425711,0.611652 7.328024,0.822648 -1.074128,2.320138 -3.880418,6.870978 -4.165583,6.755155 -0.202288,-0.08216 -13.787135,-0.224915 -30.188551,-0.317228 z"
       style="fill:#910028;fill-opacity:1;stroke:#f9f9f9;stroke-width:0.61167562;stroke-miterlimit:4;stroke-dasharray:none;stroke-opacity:1" />
    <path
       id="path858"
       d="m 1.352638,64.572513 c 0,-32.924947 0.055746,-59.8635384 0.1238805,-59.8635384 0.068134,0 1.6768842,0.926102 3.5750001,2.058005 1.898116,1.131903 7.2626194,4.2346774 11.9211194,6.8950534 9.038764,5.161858 13.558486,7.939627 16.388218,10.072012 1.700583,1.2815 2.149405,1.905308 1.696618,2.358095 -0.224329,0.224329 -0.80296,-0.09112 -12.254836,-6.681016 C 12.191063,13.304777 4.7983518,9.3299276 4.5376933,9.5905856 3.9396656,10.188614 3.5224514,80.713907 3.9776532,104.25898 c 0.2726117,14.10069 0.3359807,15.28999 0.8146853,15.28999 1.2970274,0 90.7463825,-52.78655 94.2314975,-55.608626 l 0.512437,-0.414947 -0.526815,-0.498185 c -0.289755,-0.274004 -1.170322,-0.824778 -1.956817,-1.223942 -0.786503,-0.399165 -1.61526,-0.930989 -1.841685,-1.181831 -0.549735,-0.609017 -0.317858,-1.132463 0.501667,-1.132463 1.764443,0 8.380017,3.129709 8.380017,3.964435 0,0.280595 -1.17832,1.016908 -12.319999,7.698576 C 80.510941,77.90563 69.545082,84.395155 45.682639,98.427753 36.365638,103.90673 22.73839,111.93916 15.399863,116.27762 8.0613356,120.61608 1.8985857,124.22655 1.7048623,124.30089 1.3824284,124.42462 1.352638,119.37292 1.352638,64.572513 Z"
       style="fill:#000000;fill-opacity:1;stroke:#f9f9f9;stroke-width:0.21625999;stroke-miterlimit:4;stroke-dasharray:none;stroke-opacity:1" />
    <path
       style="fill:#910028;fill-opacity:1;stroke:#f9f9f9;stroke-width:0.61167562;stroke-miterlimit:4;stroke-dasharray:none;stroke-opacity:1"
       d="M 81.375631,61.5867 C 85.277221,56.062304 90.994246,43.593969 92.727016,36.830306 95.074081,27.668818 92.230463,19.780699 85.295123,16.214433 81.802418,14.418426 75.407858,13.22961 69.173534,13.217259 l -5.45368,-0.01081 1.884677,-3.7335244 1.884677,-3.733524 h 31.222695 31.222707 l -3.67742,2.214428 c -5.77887,3.4798554 -8.81064,6.2644444 -12.05463,11.0718424 -3.53406,5.237243 -8.15151,14.200362 -8.15151,15.823207 0,1.743069 -4.55704,10.772343 -7.989584,15.830476 -1.690493,2.491081 -4.4346,5.546595 -6.098018,6.790032 -3.494497,2.612206 -9.047835,5.517381 -10.54665,5.517381 -0.946252,0 -0.949597,-0.113792 -0.04118,-1.400072 z"
       id="path860" />
    <path
       style="fill:#910028;fill-opacity:1;stroke:#f9f9f9;stroke-width:0.61167562;stroke-miterlimit:4;stroke-dasharray:none;stroke-opacity:1"
       d="M 42.939697,63.142413 13.118942,62.97457 17.116157,60.298036 c 4.453305,-2.981932 9.649003,-8.813918 13.166937,-14.779418 1.27871,-2.168361 3.880126,-7.919578 5.780924,-12.780485 1.900799,-4.860906 4.513479,-10.47414 5.805955,-12.473852 C 46.085621,13.741855 55.627445,6.3616596 59.844617,6.3616596 h 1.462781 l -1.865406,2.333453 c -1.025974,1.2833994 -3.391025,5.5536164 -5.255672,9.4893724 -7.439598,15.702959 -8.327706,22.631068 -3.789636,29.562871 3.69035,5.636929 8.082364,7.4626 19.569123,8.134482 4.128098,0.241461 7.425711,0.611652 7.328024,0.822648 -1.074128,2.320138 -3.880418,6.870978 -4.165583,6.755155 -0.202288,-0.08216 -13.787135,-0.224915 -30.188551,-0.317228 z"
       id="path862" />
    <path
       style="fill:#000000;fill-opacity:1;stroke:#f9f9f9;stroke-width:0.21625999;stroke-miterlimit:4;stroke-dasharray:none;stroke-opacity:1"
       d="m 1.352638,64.572513 c 0,-32.924947 0.055746,-59.8635384 0.1238805,-59.8635384 0.068134,0 1.6768842,0.926102 3.5750001,2.058005 1.898116,1.131903 7.2626194,4.2346774 11.9211194,6.8950534 9.038764,5.161858 13.558486,7.939627 16.388218,10.072012 1.700583,1.2815 2.149405,1.905308 1.696618,2.358095 -0.224329,0.224329 -0.80296,-0.09112 -12.254836,-6.681016 C 12.191063,13.304777 4.7983518,9.3299276 4.5376933,9.5905856 3.9396656,10.188614 3.5224514,80.713907 3.9776532,104.25898 c 0.2726117,14.10069 0.3359807,15.28999 0.8146853,15.28999 1.2970274,0 90.7463825,-52.78655 94.2314975,-55.608626 l 0.512437,-0.414947 -0.526815,-0.498185 c -0.289755,-0.274004 -1.170322,-0.824778 -1.956817,-1.223942 -0.786503,-0.399165 -1.61526,-0.930989 -1.841685,-1.181831 -0.549735,-0.609017 -0.317858,-1.132463 0.501667,-1.132463 1.764443,0 8.380017,3.129709 8.380017,3.964435 0,0.280595 -1.17832,1.016908 -12.319999,7.698576 C 80.510941,77.90563 69.545082,84.395155 45.682639,98.427753 36.365638,103.90673 22.73839,111.93916 15.399863,116.27762 8.0613356,120.61608 1.8985857,124.22655 1.7048623,124.30089 1.3824284,124.42462 1.352638,119.37292 1.352638,64.572513 Z"
       id="path864" />
  </g>
</svg>
